<mxfile host="app.diagrams.net" agent="Mozilla/5.0 (Windows NT 10.0; Win64; x64) AppleWebKit/537.36 (KHTML, like Gecko) Chrome/131.0.0.0 Safari/537.36" version="25.0.3">
  <diagram id="C5RBs43oDa-KdzZeNtuy" name="Page-1">
    <mxGraphModel dx="1615" dy="1972" grid="1" gridSize="10" guides="1" tooltips="1" connect="1" arrows="1" fold="1" page="1" pageScale="1" pageWidth="827" pageHeight="1169" math="0" shadow="0">
      <root>
        <mxCell id="WIyWlLk6GJQsqaUBKTNV-0" />
        <mxCell id="WIyWlLk6GJQsqaUBKTNV-1" parent="WIyWlLk6GJQsqaUBKTNV-0" />
        <mxCell id="BQsjGm_9FvrHZeeYCho--32" value="" style="edgeStyle=orthogonalEdgeStyle;rounded=0;orthogonalLoop=1;jettySize=auto;html=1;" edge="1" parent="WIyWlLk6GJQsqaUBKTNV-1" source="BQsjGm_9FvrHZeeYCho--0" target="BQsjGm_9FvrHZeeYCho--31">
          <mxGeometry relative="1" as="geometry" />
        </mxCell>
        <mxCell id="BQsjGm_9FvrHZeeYCho--0" value="START" style="ellipse;whiteSpace=wrap;html=1;" vertex="1" parent="WIyWlLk6GJQsqaUBKTNV-1">
          <mxGeometry x="150" y="-90" width="120" height="80" as="geometry" />
        </mxCell>
        <mxCell id="BQsjGm_9FvrHZeeYCho--6" value="" style="edgeStyle=orthogonalEdgeStyle;rounded=0;orthogonalLoop=1;jettySize=auto;html=1;" edge="1" parent="WIyWlLk6GJQsqaUBKTNV-1" source="BQsjGm_9FvrHZeeYCho--1" target="BQsjGm_9FvrHZeeYCho--5">
          <mxGeometry relative="1" as="geometry" />
        </mxCell>
        <mxCell id="BQsjGm_9FvrHZeeYCho--1" value="num" style="shape=parallelogram;perimeter=parallelogramPerimeter;whiteSpace=wrap;html=1;fixedSize=1;" vertex="1" parent="WIyWlLk6GJQsqaUBKTNV-1">
          <mxGeometry x="150" y="230" width="120" height="60" as="geometry" />
        </mxCell>
        <mxCell id="BQsjGm_9FvrHZeeYCho--10" value="" style="edgeStyle=orthogonalEdgeStyle;rounded=0;orthogonalLoop=1;jettySize=auto;html=1;" edge="1" parent="WIyWlLk6GJQsqaUBKTNV-1" source="BQsjGm_9FvrHZeeYCho--5">
          <mxGeometry relative="1" as="geometry">
            <mxPoint x="360" y="410" as="targetPoint" />
          </mxGeometry>
        </mxCell>
        <mxCell id="BQsjGm_9FvrHZeeYCho--12" value="" style="edgeStyle=orthogonalEdgeStyle;rounded=0;orthogonalLoop=1;jettySize=auto;html=1;" edge="1" parent="WIyWlLk6GJQsqaUBKTNV-1" source="BQsjGm_9FvrHZeeYCho--5">
          <mxGeometry relative="1" as="geometry">
            <mxPoint x="210" y="560" as="targetPoint" />
          </mxGeometry>
        </mxCell>
        <mxCell id="BQsjGm_9FvrHZeeYCho--5" value="i &amp;lt;= num" style="rhombus;whiteSpace=wrap;html=1;" vertex="1" parent="WIyWlLk6GJQsqaUBKTNV-1">
          <mxGeometry x="160" y="360" width="100" height="100" as="geometry" />
        </mxCell>
        <mxCell id="BQsjGm_9FvrHZeeYCho--13" value="True" style="text;html=1;align=center;verticalAlign=middle;resizable=0;points=[];autosize=1;strokeColor=none;fillColor=none;" vertex="1" parent="WIyWlLk6GJQsqaUBKTNV-1">
          <mxGeometry x="280" y="380" width="50" height="30" as="geometry" />
        </mxCell>
        <mxCell id="BQsjGm_9FvrHZeeYCho--14" value="False" style="text;html=1;align=center;verticalAlign=middle;resizable=0;points=[];autosize=1;strokeColor=none;fillColor=none;rotation=90;" vertex="1" parent="WIyWlLk6GJQsqaUBKTNV-1">
          <mxGeometry x="200" y="488" width="50" height="30" as="geometry" />
        </mxCell>
        <mxCell id="BQsjGm_9FvrHZeeYCho--18" value="" style="edgeStyle=orthogonalEdgeStyle;rounded=0;orthogonalLoop=1;jettySize=auto;html=1;" edge="1" parent="WIyWlLk6GJQsqaUBKTNV-1" source="BQsjGm_9FvrHZeeYCho--16">
          <mxGeometry relative="1" as="geometry">
            <mxPoint x="360" y="610" as="targetPoint" />
          </mxGeometry>
        </mxCell>
        <mxCell id="BQsjGm_9FvrHZeeYCho--22" value="" style="edgeStyle=orthogonalEdgeStyle;rounded=0;orthogonalLoop=1;jettySize=auto;html=1;" edge="1" parent="WIyWlLk6GJQsqaUBKTNV-1" source="BQsjGm_9FvrHZeeYCho--16" target="BQsjGm_9FvrHZeeYCho--21">
          <mxGeometry relative="1" as="geometry" />
        </mxCell>
        <mxCell id="BQsjGm_9FvrHZeeYCho--16" value="num % i == 0" style="rhombus;whiteSpace=wrap;html=1;" vertex="1" parent="WIyWlLk6GJQsqaUBKTNV-1">
          <mxGeometry x="160" y="560" width="100" height="100" as="geometry" />
        </mxCell>
        <mxCell id="BQsjGm_9FvrHZeeYCho--19" value="True" style="text;html=1;align=center;verticalAlign=middle;resizable=0;points=[];autosize=1;strokeColor=none;fillColor=none;" vertex="1" parent="WIyWlLk6GJQsqaUBKTNV-1">
          <mxGeometry x="280" y="580" width="50" height="30" as="geometry" />
        </mxCell>
        <mxCell id="BQsjGm_9FvrHZeeYCho--30" style="edgeStyle=orthogonalEdgeStyle;rounded=0;orthogonalLoop=1;jettySize=auto;html=1;entryX=1;entryY=0.5;entryDx=0;entryDy=0;" edge="1" parent="WIyWlLk6GJQsqaUBKTNV-1" source="BQsjGm_9FvrHZeeYCho--20" target="BQsjGm_9FvrHZeeYCho--21">
          <mxGeometry relative="1" as="geometry">
            <Array as="points">
              <mxPoint x="414" y="790" />
            </Array>
          </mxGeometry>
        </mxCell>
        <mxCell id="BQsjGm_9FvrHZeeYCho--20" value="i" style="shape=parallelogram;perimeter=parallelogramPerimeter;whiteSpace=wrap;html=1;fixedSize=1;" vertex="1" parent="WIyWlLk6GJQsqaUBKTNV-1">
          <mxGeometry x="354" y="585" width="120" height="60" as="geometry" />
        </mxCell>
        <mxCell id="BQsjGm_9FvrHZeeYCho--26" style="edgeStyle=orthogonalEdgeStyle;rounded=0;orthogonalLoop=1;jettySize=auto;html=1;entryX=0;entryY=0.5;entryDx=0;entryDy=0;" edge="1" parent="WIyWlLk6GJQsqaUBKTNV-1" source="BQsjGm_9FvrHZeeYCho--21" target="BQsjGm_9FvrHZeeYCho--5">
          <mxGeometry relative="1" as="geometry">
            <mxPoint x="70" y="790" as="targetPoint" />
            <Array as="points">
              <mxPoint x="40" y="790" />
              <mxPoint x="40" y="410" />
            </Array>
          </mxGeometry>
        </mxCell>
        <mxCell id="BQsjGm_9FvrHZeeYCho--21" value="i++" style="whiteSpace=wrap;html=1;" vertex="1" parent="WIyWlLk6GJQsqaUBKTNV-1">
          <mxGeometry x="150" y="760" width="120" height="60" as="geometry" />
        </mxCell>
        <mxCell id="BQsjGm_9FvrHZeeYCho--27" value="False" style="text;html=1;align=center;verticalAlign=middle;resizable=0;points=[];autosize=1;strokeColor=none;fillColor=none;rotation=90;" vertex="1" parent="WIyWlLk6GJQsqaUBKTNV-1">
          <mxGeometry x="200" y="700" width="50" height="30" as="geometry" />
        </mxCell>
        <mxCell id="BQsjGm_9FvrHZeeYCho--28" value="END" style="ellipse;whiteSpace=wrap;html=1;" vertex="1" parent="WIyWlLk6GJQsqaUBKTNV-1">
          <mxGeometry x="360" y="370" width="120" height="80" as="geometry" />
        </mxCell>
        <mxCell id="BQsjGm_9FvrHZeeYCho--33" value="" style="edgeStyle=orthogonalEdgeStyle;rounded=0;orthogonalLoop=1;jettySize=auto;html=1;" edge="1" parent="WIyWlLk6GJQsqaUBKTNV-1" source="BQsjGm_9FvrHZeeYCho--31" target="BQsjGm_9FvrHZeeYCho--1">
          <mxGeometry relative="1" as="geometry" />
        </mxCell>
        <mxCell id="BQsjGm_9FvrHZeeYCho--31" value="num, i = 1" style="rounded=0;whiteSpace=wrap;html=1;" vertex="1" parent="WIyWlLk6GJQsqaUBKTNV-1">
          <mxGeometry x="150" y="80" width="120" height="60" as="geometry" />
        </mxCell>
      </root>
    </mxGraphModel>
  </diagram>
</mxfile>
